<?xml version="1.0" encoding="utf-8"?>
<!-- Generator: Adobe Illustrator 23.0.3, SVG Export Plug-In . SVG Version: 6.00 Build 0)  -->
<svg version="1.1" id="Vrstva_1" xmlns="http://www.w3.org/2000/svg" xmlns:xlink="http://www.w3.org/1999/xlink" x="0px" y="0px"
	 viewBox="0 0 28 28" style="enable-background:new 0 0 28 28;" xml:space="preserve">
<style type="text/css">
	.st0{fill:#fff;}
</style>
<g>
	<path id="Facebook_2_" class="st0" d="M11.3,7.8c0,0.5,0,2.8,0,2.8H9.3V14h2.1v10.2h4.2V14h2.8c0,0,0.3-1.6,0.4-3.4
		c-0.4,0-3.2,0-3.2,0s0-2,0-2.3c0-0.3,0.5-0.8,0.9-0.8c0.5,0,1.4,0,2.3,0c0-0.5,0-2.1,0-3.6c-1.2,0-2.5,0-3.1,0
		C11.2,3.8,11.3,7.3,11.3,7.8z"/>
</g>
</svg>
