<?xml version="1.0" encoding="utf-8"?>
<!-- Generator: Adobe Illustrator 23.0.3, SVG Export Plug-In . SVG Version: 6.00 Build 0)  -->
<svg version="1.1" id="Vrstva_1" xmlns="http://www.w3.org/2000/svg" xmlns:xlink="http://www.w3.org/1999/xlink" x="0px" y="0px"
	 viewBox="0 0 28 28" style="enable-background:new 0 0 28 28;" xml:space="preserve">
<style type="text/css">
	.st0{fill:#fff;}

</style>
<g>
	<path id="LinkedIn_2_" class="st0" d="M24.1,16.2v7.5h-4.3v-7c0-1.8-0.6-3-2.2-3c-1.2,0-1.9,0.8-2.2,1.6c-0.1,0.3-0.1,0.7-0.1,1.1
		v7.3h-4.3c0,0,0.1-11.8,0-13.1h4.3v1.9c0,0,0,0,0,0h0v0c0.6-0.9,1.6-2.2,3.9-2.2C22,10.3,24.1,12.2,24.1,16.2z M6.3,4.3
		c-1.5,0-2.5,1-2.5,2.3c0,1.3,0.9,2.3,2.4,2.3h0c1.5,0,2.5-1,2.5-2.3C8.7,5.3,7.8,4.3,6.3,4.3z M4.1,23.7h4.3V10.6H4.1V23.7z"/>
</g>
</svg>
