<?xml version="1.0" encoding="utf-8"?>
<svg id="apu-logo" viewBox="0 0 684.4 200" xmlns="http://www.w3.org/2000/svg" xmlns:xlink="http://www.w3.org/1999/xlink" x="0px" y="0px">
<style type="text/css">
#apu-logo * { fill: white; }
</style>
	<path d="M51.1,139.1C22.9,139.1,0,116.2,0,88.1C0,59.9,22.9,37,51.1,37c28.2,0,51.1,22.9,51.1,51.1
	C102.1,116.2,79.2,139.1,51.1,139.1z M51.1,54.2c-18.7,0-33.9,15.2-33.9,33.9c0,18.7,15.2,33.9,33.9,33.9s33.9-15.2,33.9-33.9
	C84.9,69.4,69.7,54.2,51.1,54.2z"/>
	<circle cx="166.4" cy="88.1" r="10.8"/>
	<circle cx="407.8" cy="10.8" r="10.8"/>
	<path d="M145.4,200c-16.5,0-29.9-13.4-29.9-29.9l-0.1-82c0-28.2,22.9-51.1,51.1-51.1s51.1,22.9,51.1,51.1
	c0,28.2-22.9,51.1-51.1,51.1c-4.8,0-8.6-3.9-8.6-8.6c0-4.8,3.9-8.6,8.6-8.6c18.7,0,33.9-15.2,33.9-33.9c0-18.7-15.2-33.9-33.9-33.9
	s-33.9,15.2-33.9,33.9l0.1,82c0,7,5.7,12.7,12.7,12.7c7,0,12.7-5.7,12.7-12.7c0-4.8,3.9-8.6,8.6-8.6c4.8,0,8.6,3.9,8.6,8.6
	C175.2,186.6,161.8,200,145.4,200z"/>
	<path d="M93.6,137c-4.8,0-8.6-3.9-8.6-8.6V47.7c0-4.8,3.9-8.6,8.6-8.6s8.6,3.9,8.6,8.6v80.6
	C102.2,133.1,98.4,137,93.6,137z"/>
	<path d="M274.5,139.1c-24.4,0-44.3-19.9-44.3-44.3V47.7c0-4.8,3.9-8.6,8.6-8.6c4.8,0,8.6,3.9,8.6,8.6v47.1
	c0,14.9,12.2,27.1,27.1,27.1s27.1-12.2,27.1-27.1V47.7c0-4.8,3.9-8.6,8.6-8.6c4.8,0,8.6,3.9,8.6,8.6v47.1
	C318.8,119.3,298.9,139.1,274.5,139.1z"/>
	<path d="M366.3,139c-16.7,0-30.2-13.6-30.2-30.2V10.6c0-4.8,3.9-8.6,8.6-8.6s8.6,3.9,8.6,8.6v98.2c0,7.2,5.8,13,13,13
	c1.9,0,3.8-0.4,5.5-1.2c4.3-2,9.4-0.2,11.4,4.1c2,4.3,0.2,9.4-4.1,11.4C375.1,138.1,370.8,139,366.3,139z"/>
	<path d="M374.1,54.1h-29.4c-4.8,0-8.6-3.9-8.6-8.6s3.9-8.6,8.6-8.6h29.4c4.8,0,8.6,3.9,8.6,8.6S378.9,54.1,374.1,54.1z
	"/>
	<path d="M407.6,137c-4.8,0-8.6-3.9-8.6-8.6V47.7c0-4.8,3.9-8.6,8.6-8.6s8.6,3.9,8.6,8.6v80.6
	C416.2,133.1,412.3,137,407.6,137z"/>
	<path d="M447.1,137c-4.8,0-8.6-3.9-8.6-8.6V47.7c0-4.8,3.9-8.6,8.6-8.6s8.6,3.9,8.6,8.6v80.6
	C455.7,133.1,451.9,137,447.1,137z"/>
	<path d="M509.9,137c-4.8,0-8.6-3.9-8.6-8.6V77c0-12.6-10.2-22.8-22.8-22.8S455.7,64.4,455.7,77v51.4
	c0,4.8-3.9,8.6-8.6,8.6s-8.6-3.9-8.6-8.6V77c0-22.1,17.9-40,40-40c22.1,0,40,17.9,40,40v51.4C518.5,133.1,514.7,137,509.9,137z"/>
	<path d="M572.7,137c-4.8,0-8.6-3.9-8.6-8.6V77c0-12.6-10.2-22.8-22.8-22.8c-12.6,0-22.8,10.2-22.8,22.8v51.4
	c0,4.8-3.9,8.6-8.6,8.6s-8.6-3.9-8.6-8.6V77c0-22.1,17.9-40,40-40c22.1,0,40,17.9,40,40v51.4C581.3,133.1,577.5,137,572.7,137z"/>
	<path d="M642.5,139.1c-28.2,0-51.1-22.9-51.1-51.1c0-28.2,22.9-51.1,51.1-51.1c15.7,0,30.3,7.1,40,19.4
	c1.5,1.8,2.1,4.2,1.8,6.5c-0.3,2.3-1.6,4.4-3.4,5.8l-61,44.6c6,5.4,13.9,8.6,22.6,8.6c7.8,0,15-2.5,21.1-7.4
	c3.7-3,9.1-2.3,12.1,1.4c3,3.7,2.3,9.1-1.4,12.1C665.3,135.2,654,139.1,642.5,139.1z M642.5,54.2c-18.7,0-33.9,15.2-33.9,33.9
	c0,3.8,0.6,7.4,1.8,10.9l52.1-38.2C656.8,56.5,649.8,54.2,642.5,54.2z"/>
</svg>
