<svg xmlns="http://www.w3.org/2000/svg" viewBox="0 0 1882.42 93.68"><defs><style>.cls-1{fill:#141319;}</style></defs><title>dots_grid_bottom</title><g id="Layer_2" data-name="Layer 2"><g id="Layer_1-2" data-name="Layer 1"><path class="cls-1" d="M326.26,89.31a4.37,4.37,0,1,1,4.36,4.37,4.36,4.36,0,0,1-4.36-4.37"/><path class="cls-1" d="M296.6,89.31A4.37,4.37,0,1,1,301,93.68a4.36,4.36,0,0,1-4.36-4.37"/><path class="cls-1" d="M266.94,89.31a4.37,4.37,0,1,1,4.36,4.37,4.36,4.36,0,0,1-4.36-4.37"/><path class="cls-1" d="M237.28,89.31a4.37,4.37,0,1,1,4.36,4.37,4.36,4.36,0,0,1-4.36-4.37"/><path class="cls-1" d="M207.62,89.31A4.37,4.37,0,1,1,212,93.68a4.36,4.36,0,0,1-4.36-4.37"/><path class="cls-1" d="M178,89.31a4.37,4.37,0,1,1,4.36,4.37A4.36,4.36,0,0,1,178,89.31"/><path class="cls-1" d="M148.3,89.31a4.37,4.37,0,1,1,4.36,4.37,4.36,4.36,0,0,1-4.36-4.37"/><path class="cls-1" d="M118.64,89.31A4.37,4.37,0,1,1,123,93.68a4.36,4.36,0,0,1-4.36-4.37"/><path class="cls-1" d="M89,89.31a4.37,4.37,0,1,1,4.36,4.37A4.36,4.36,0,0,1,89,89.31"/><path class="cls-1" d="M59.32,89.31a4.37,4.37,0,1,1,4.36,4.37,4.36,4.36,0,0,1-4.36-4.37"/><path class="cls-1" d="M29.66,89.31A4.37,4.37,0,1,1,34,93.68a4.36,4.36,0,0,1-4.36-4.37"/><path class="cls-1" d="M0,89.31a4.37,4.37,0,1,1,4.36,4.37A4.36,4.36,0,0,1,0,89.31"/><path class="cls-1" d="M326.26,61a4.37,4.37,0,1,1,4.36,4.36A4.37,4.37,0,0,1,326.26,61"/><path class="cls-1" d="M296.6,61A4.37,4.37,0,1,1,301,65.36,4.37,4.37,0,0,1,296.6,61"/><path class="cls-1" d="M266.94,61a4.37,4.37,0,1,1,4.36,4.36A4.37,4.37,0,0,1,266.94,61"/><path class="cls-1" d="M237.28,61a4.37,4.37,0,1,1,4.36,4.36A4.37,4.37,0,0,1,237.28,61"/><path class="cls-1" d="M207.62,61A4.37,4.37,0,1,1,212,65.36,4.37,4.37,0,0,1,207.62,61"/><path class="cls-1" d="M178,61a4.37,4.37,0,1,1,4.36,4.36A4.37,4.37,0,0,1,178,61"/><path class="cls-1" d="M148.3,61a4.37,4.37,0,1,1,4.36,4.36A4.37,4.37,0,0,1,148.3,61"/><path class="cls-1" d="M118.64,61A4.37,4.37,0,1,1,123,65.36,4.37,4.37,0,0,1,118.64,61"/><path class="cls-1" d="M89,61a4.37,4.37,0,1,1,4.36,4.36A4.37,4.37,0,0,1,89,61"/><path class="cls-1" d="M59.32,61a4.37,4.37,0,1,1,4.36,4.36A4.37,4.37,0,0,1,59.32,61"/><path class="cls-1" d="M29.66,61A4.37,4.37,0,1,1,34,65.36,4.37,4.37,0,0,1,29.66,61"/><path class="cls-1" d="M0,61a4.37,4.37,0,1,1,4.36,4.36A4.37,4.37,0,0,1,0,61"/><path class="cls-1" d="M326.26,32.68a4.37,4.37,0,1,1,4.36,4.37,4.36,4.36,0,0,1-4.36-4.37"/><path class="cls-1" d="M296.6,32.68A4.37,4.37,0,1,1,301,37.05a4.36,4.36,0,0,1-4.36-4.37"/><path class="cls-1" d="M266.94,32.68a4.37,4.37,0,1,1,4.36,4.37,4.36,4.36,0,0,1-4.36-4.37"/><path class="cls-1" d="M237.28,32.68a4.37,4.37,0,1,1,4.36,4.37,4.36,4.36,0,0,1-4.36-4.37"/><path class="cls-1" d="M207.62,32.68A4.37,4.37,0,1,1,212,37.05a4.36,4.36,0,0,1-4.36-4.37"/><path class="cls-1" d="M178,32.68a4.37,4.37,0,1,1,4.36,4.37A4.36,4.36,0,0,1,178,32.68"/><path class="cls-1" d="M148.3,32.68a4.37,4.37,0,1,1,4.36,4.37,4.36,4.36,0,0,1-4.36-4.37"/><path class="cls-1" d="M118.64,32.68A4.37,4.37,0,1,1,123,37.05a4.36,4.36,0,0,1-4.36-4.37"/><path class="cls-1" d="M89,32.68a4.37,4.37,0,1,1,4.36,4.37A4.36,4.36,0,0,1,89,32.68"/><path class="cls-1" d="M59.32,32.68a4.37,4.37,0,1,1,4.36,4.37,4.36,4.36,0,0,1-4.36-4.37"/><path class="cls-1" d="M29.66,32.68A4.37,4.37,0,1,1,34,37.05a4.36,4.36,0,0,1-4.36-4.37"/><path class="cls-1" d="M0,32.68a4.37,4.37,0,1,1,4.36,4.37A4.36,4.36,0,0,1,0,32.68"/><path class="cls-1" d="M326.26,4.36a4.37,4.37,0,1,1,4.36,4.37,4.36,4.36,0,0,1-4.36-4.37"/><path class="cls-1" d="M296.6,4.36A4.37,4.37,0,1,1,301,8.73a4.36,4.36,0,0,1-4.36-4.37"/><path class="cls-1" d="M266.94,4.36a4.37,4.37,0,1,1,4.36,4.37,4.36,4.36,0,0,1-4.36-4.37"/><path class="cls-1" d="M237.28,4.36a4.37,4.37,0,1,1,4.36,4.37,4.36,4.36,0,0,1-4.36-4.37"/><path class="cls-1" d="M207.62,4.36A4.37,4.37,0,1,1,212,8.73a4.36,4.36,0,0,1-4.36-4.37"/><path class="cls-1" d="M178,4.36a4.37,4.37,0,1,1,4.36,4.37A4.36,4.36,0,0,1,178,4.36"/><path class="cls-1" d="M148.3,4.36a4.37,4.37,0,1,1,4.36,4.37,4.36,4.36,0,0,1-4.36-4.37"/><path class="cls-1" d="M118.64,4.36A4.37,4.37,0,1,1,123,8.73a4.36,4.36,0,0,1-4.36-4.37"/><path class="cls-1" d="M89,4.36a4.37,4.37,0,1,1,4.36,4.37A4.36,4.36,0,0,1,89,4.36"/><path class="cls-1" d="M59.32,4.36a4.37,4.37,0,1,1,4.36,4.37,4.36,4.36,0,0,1-4.36-4.37"/><path class="cls-1" d="M29.66,4.36A4.37,4.37,0,1,1,34,8.73a4.36,4.36,0,0,1-4.36-4.37"/><path class="cls-1" d="M0,4.36A4.37,4.37,0,1,1,4.36,8.73,4.36,4.36,0,0,1,0,4.36"/><path class="cls-1" d="M1516.36,89.31a4.37,4.37,0,1,1,4.36,4.37,4.36,4.36,0,0,1-4.36-4.37"/><path class="cls-1" d="M1486.7,89.31a4.37,4.37,0,1,1,4.36,4.37,4.36,4.36,0,0,1-4.36-4.37"/><path class="cls-1" d="M1457,89.31a4.37,4.37,0,1,1,4.36,4.37,4.36,4.36,0,0,1-4.36-4.37"/><path class="cls-1" d="M1427.38,89.31a4.37,4.37,0,1,1,4.36,4.37,4.36,4.36,0,0,1-4.36-4.37"/><path class="cls-1" d="M1397.72,89.31a4.37,4.37,0,1,1,4.36,4.37,4.36,4.36,0,0,1-4.36-4.37"/><path class="cls-1" d="M1368.06,89.31a4.37,4.37,0,1,1,4.36,4.37,4.36,4.36,0,0,1-4.36-4.37"/><path class="cls-1" d="M1338.4,89.31a4.37,4.37,0,1,1,4.36,4.37,4.36,4.36,0,0,1-4.36-4.37"/><path class="cls-1" d="M1308.74,89.31a4.37,4.37,0,1,1,4.36,4.37,4.36,4.36,0,0,1-4.36-4.37"/><path class="cls-1" d="M1279.08,89.31a4.37,4.37,0,1,1,4.36,4.37,4.36,4.36,0,0,1-4.36-4.37"/><path class="cls-1" d="M1249.42,89.31a4.37,4.37,0,1,1,4.36,4.37,4.36,4.36,0,0,1-4.36-4.37"/><path class="cls-1" d="M1219.76,89.31a4.37,4.37,0,1,1,4.36,4.37,4.36,4.36,0,0,1-4.36-4.37"/><path class="cls-1" d="M1190.1,89.31a4.37,4.37,0,1,1,4.36,4.37,4.36,4.36,0,0,1-4.36-4.37"/><path class="cls-1" d="M1160.44,89.31a4.37,4.37,0,1,1,4.37,4.37,4.36,4.36,0,0,1-4.37-4.37"/><path class="cls-1" d="M1130.78,89.31a4.37,4.37,0,1,1,4.37,4.37,4.36,4.36,0,0,1-4.37-4.37"/><path class="cls-1" d="M1101.12,89.31a4.37,4.37,0,1,1,4.37,4.37,4.37,4.37,0,0,1-4.37-4.37"/><path class="cls-1" d="M1071.46,89.31a4.37,4.37,0,1,1,4.37,4.37,4.36,4.36,0,0,1-4.37-4.37"/><path class="cls-1" d="M1041.8,89.31a4.37,4.37,0,1,1,4.37,4.37,4.37,4.37,0,0,1-4.37-4.37"/><path class="cls-1" d="M1012.14,89.31a4.37,4.37,0,1,1,4.37,4.37,4.37,4.37,0,0,1-4.37-4.37"/><path class="cls-1" d="M982.48,89.31a4.37,4.37,0,1,1,4.37,4.37,4.37,4.37,0,0,1-4.37-4.37"/><path class="cls-1" d="M952.82,89.31a4.37,4.37,0,1,1,4.37,4.37,4.37,4.37,0,0,1-4.37-4.37"/><path class="cls-1" d="M1516.36,61a4.37,4.37,0,1,1,4.36,4.36,4.37,4.37,0,0,1-4.36-4.36"/><path class="cls-1" d="M1486.7,61a4.37,4.37,0,1,1,4.36,4.36A4.37,4.37,0,0,1,1486.7,61"/><path class="cls-1" d="M1457,61a4.37,4.37,0,1,1,4.36,4.36A4.37,4.37,0,0,1,1457,61"/><path class="cls-1" d="M1427.38,61a4.37,4.37,0,1,1,4.36,4.36,4.37,4.37,0,0,1-4.36-4.36"/><path class="cls-1" d="M1397.72,61a4.37,4.37,0,1,1,4.36,4.36,4.37,4.37,0,0,1-4.36-4.36"/><path class="cls-1" d="M1368.06,61a4.37,4.37,0,1,1,4.36,4.36,4.37,4.37,0,0,1-4.36-4.36"/><path class="cls-1" d="M1338.4,61a4.37,4.37,0,1,1,4.36,4.36A4.37,4.37,0,0,1,1338.4,61"/><path class="cls-1" d="M1308.74,61a4.37,4.37,0,1,1,4.36,4.36,4.37,4.37,0,0,1-4.36-4.36"/><path class="cls-1" d="M1279.08,61a4.37,4.37,0,1,1,4.36,4.36,4.37,4.37,0,0,1-4.36-4.36"/><path class="cls-1" d="M1249.42,61a4.37,4.37,0,1,1,4.36,4.36,4.37,4.37,0,0,1-4.36-4.36"/><path class="cls-1" d="M1219.76,61a4.37,4.37,0,1,1,4.36,4.36,4.37,4.37,0,0,1-4.36-4.36"/><path class="cls-1" d="M1190.1,61a4.37,4.37,0,1,1,4.36,4.36A4.37,4.37,0,0,1,1190.1,61"/><path class="cls-1" d="M1160.44,61a4.37,4.37,0,1,1,4.37,4.36,4.37,4.37,0,0,1-4.37-4.36"/><path class="cls-1" d="M1130.78,61a4.37,4.37,0,1,1,4.37,4.36,4.37,4.37,0,0,1-4.37-4.36"/><path class="cls-1" d="M1101.12,61a4.37,4.37,0,1,1,4.37,4.36,4.37,4.37,0,0,1-4.37-4.36"/><path class="cls-1" d="M1071.46,61a4.37,4.37,0,1,1,4.37,4.36,4.37,4.37,0,0,1-4.37-4.36"/><path class="cls-1" d="M1041.8,61a4.37,4.37,0,1,1,4.37,4.36A4.37,4.37,0,0,1,1041.8,61"/><path class="cls-1" d="M1012.14,61a4.37,4.37,0,1,1,4.37,4.36,4.37,4.37,0,0,1-4.37-4.36"/><path class="cls-1" d="M982.48,61a4.37,4.37,0,1,1,4.37,4.36A4.37,4.37,0,0,1,982.48,61"/><path class="cls-1" d="M952.82,61a4.37,4.37,0,1,1,4.37,4.36A4.37,4.37,0,0,1,952.82,61"/><path class="cls-1" d="M1516.36,32.68a4.37,4.37,0,1,1,4.36,4.37,4.36,4.36,0,0,1-4.36-4.37"/><path class="cls-1" d="M1486.7,32.68a4.37,4.37,0,1,1,4.36,4.37,4.36,4.36,0,0,1-4.36-4.37"/><path class="cls-1" d="M1457,32.68a4.37,4.37,0,1,1,4.36,4.37,4.36,4.36,0,0,1-4.36-4.37"/><path class="cls-1" d="M1427.38,32.68a4.37,4.37,0,1,1,4.36,4.37,4.36,4.36,0,0,1-4.36-4.37"/><path class="cls-1" d="M1397.72,32.68a4.37,4.37,0,1,1,4.36,4.37,4.36,4.36,0,0,1-4.36-4.37"/><path class="cls-1" d="M1368.06,32.68a4.37,4.37,0,1,1,4.36,4.37,4.36,4.36,0,0,1-4.36-4.37"/><path class="cls-1" d="M1338.4,32.68a4.37,4.37,0,1,1,4.36,4.37,4.36,4.36,0,0,1-4.36-4.37"/><path class="cls-1" d="M1308.74,32.68a4.37,4.37,0,1,1,4.36,4.37,4.36,4.36,0,0,1-4.36-4.37"/><path class="cls-1" d="M1279.08,32.68a4.37,4.37,0,1,1,4.36,4.37,4.36,4.36,0,0,1-4.36-4.37"/><path class="cls-1" d="M1249.42,32.68a4.37,4.37,0,1,1,4.36,4.37,4.36,4.36,0,0,1-4.36-4.37"/><path class="cls-1" d="M1219.76,32.68a4.37,4.37,0,1,1,4.36,4.37,4.36,4.36,0,0,1-4.36-4.37"/><path class="cls-1" d="M1190.1,32.68a4.37,4.37,0,1,1,4.36,4.37,4.36,4.36,0,0,1-4.36-4.37"/><path class="cls-1" d="M1160.44,32.68a4.37,4.37,0,1,1,4.37,4.37,4.36,4.36,0,0,1-4.37-4.37"/><path class="cls-1" d="M1130.78,32.68a4.37,4.37,0,1,1,4.37,4.37,4.36,4.36,0,0,1-4.37-4.37"/><path class="cls-1" d="M1101.12,32.68a4.37,4.37,0,1,1,4.37,4.37,4.37,4.37,0,0,1-4.37-4.37"/><path class="cls-1" d="M1071.46,32.68a4.37,4.37,0,1,1,4.37,4.37,4.36,4.36,0,0,1-4.37-4.37"/><path class="cls-1" d="M1041.8,32.68a4.37,4.37,0,1,1,4.37,4.37,4.37,4.37,0,0,1-4.37-4.37"/><path class="cls-1" d="M1012.14,32.68a4.37,4.37,0,1,1,4.37,4.37,4.37,4.37,0,0,1-4.37-4.37"/><path class="cls-1" d="M982.48,32.68a4.37,4.37,0,1,1,4.37,4.37,4.37,4.37,0,0,1-4.37-4.37"/><path class="cls-1" d="M952.82,32.68a4.37,4.37,0,1,1,4.37,4.37,4.37,4.37,0,0,1-4.37-4.37"/><path class="cls-1" d="M1516.36,4.36a4.37,4.37,0,1,1,4.36,4.37,4.36,4.36,0,0,1-4.36-4.37"/><path class="cls-1" d="M1486.7,4.36a4.37,4.37,0,1,1,4.36,4.37,4.36,4.36,0,0,1-4.36-4.37"/><path class="cls-1" d="M1457,4.36a4.37,4.37,0,1,1,4.36,4.37A4.36,4.36,0,0,1,1457,4.36"/><path class="cls-1" d="M1427.38,4.36a4.37,4.37,0,1,1,4.36,4.37,4.36,4.36,0,0,1-4.36-4.37"/><path class="cls-1" d="M1397.72,4.36a4.37,4.37,0,1,1,4.36,4.37,4.36,4.36,0,0,1-4.36-4.37"/><path class="cls-1" d="M1368.06,4.36a4.37,4.37,0,1,1,4.36,4.37,4.36,4.36,0,0,1-4.36-4.37"/><path class="cls-1" d="M1338.4,4.36a4.37,4.37,0,1,1,4.36,4.37,4.36,4.36,0,0,1-4.36-4.37"/><path class="cls-1" d="M1308.74,4.36a4.37,4.37,0,1,1,4.36,4.37,4.36,4.36,0,0,1-4.36-4.37"/><path class="cls-1" d="M1279.08,4.36a4.37,4.37,0,1,1,4.36,4.37,4.36,4.36,0,0,1-4.36-4.37"/><path class="cls-1" d="M1249.42,4.36a4.37,4.37,0,1,1,4.36,4.37,4.36,4.36,0,0,1-4.36-4.37"/><path class="cls-1" d="M1219.76,4.36a4.37,4.37,0,1,1,4.36,4.37,4.36,4.36,0,0,1-4.36-4.37"/><path class="cls-1" d="M1190.1,4.36a4.37,4.37,0,1,1,4.36,4.37,4.36,4.36,0,0,1-4.36-4.37"/><path class="cls-1" d="M1160.44,4.36a4.37,4.37,0,1,1,4.37,4.37,4.36,4.36,0,0,1-4.37-4.37"/><path class="cls-1" d="M1130.78,4.36a4.37,4.37,0,1,1,4.37,4.37,4.36,4.36,0,0,1-4.37-4.37"/><path class="cls-1" d="M1101.12,4.36a4.37,4.37,0,1,1,4.37,4.37,4.37,4.37,0,0,1-4.37-4.37"/><path class="cls-1" d="M1071.46,4.36a4.37,4.37,0,1,1,4.37,4.37,4.36,4.36,0,0,1-4.37-4.37"/><path class="cls-1" d="M1041.8,4.36a4.37,4.37,0,1,1,4.37,4.37,4.37,4.37,0,0,1-4.37-4.37"/><path class="cls-1" d="M1012.14,4.36a4.37,4.37,0,1,1,4.37,4.37,4.37,4.37,0,0,1-4.37-4.37"/><path class="cls-1" d="M982.48,4.36a4.37,4.37,0,1,1,4.37,4.37,4.37,4.37,0,0,1-4.37-4.37"/><path class="cls-1" d="M952.82,4.36a4.37,4.37,0,1,1,4.37,4.37,4.37,4.37,0,0,1-4.37-4.37"/><path class="cls-1" d="M1873.69,89.31a4.37,4.37,0,1,1,4.37,4.37,4.37,4.37,0,0,1-4.37-4.37"/><path class="cls-1" d="M1844,89.31a4.37,4.37,0,1,1,4.37,4.37,4.37,4.37,0,0,1-4.37-4.37"/><path class="cls-1" d="M1814.37,89.31a4.37,4.37,0,1,1,4.37,4.37,4.37,4.37,0,0,1-4.37-4.37"/><path class="cls-1" d="M1784.71,89.31a4.37,4.37,0,1,1,4.37,4.37,4.37,4.37,0,0,1-4.37-4.37"/><path class="cls-1" d="M1755.05,89.31a4.37,4.37,0,1,1,4.37,4.37,4.37,4.37,0,0,1-4.37-4.37"/><path class="cls-1" d="M1725.39,89.31a4.37,4.37,0,1,1,4.37,4.37,4.37,4.37,0,0,1-4.37-4.37"/><path class="cls-1" d="M1695.73,89.31a4.37,4.37,0,1,1,4.37,4.37,4.37,4.37,0,0,1-4.37-4.37"/><path class="cls-1" d="M1666.08,89.31a4.37,4.37,0,1,1,4.36,4.37,4.36,4.36,0,0,1-4.36-4.37"/><path class="cls-1" d="M1636.42,89.31a4.37,4.37,0,1,1,4.36,4.37,4.36,4.36,0,0,1-4.36-4.37"/><path class="cls-1" d="M1606.76,89.31a4.37,4.37,0,1,1,4.36,4.37,4.36,4.36,0,0,1-4.36-4.37"/><path class="cls-1" d="M1577.1,89.31a4.37,4.37,0,1,1,4.36,4.37,4.36,4.36,0,0,1-4.36-4.37"/><path class="cls-1" d="M1547.44,89.31a4.37,4.37,0,1,1,4.36,4.37,4.36,4.36,0,0,1-4.36-4.37"/><path class="cls-1" d="M1873.69,61a4.37,4.37,0,1,1,4.37,4.36,4.37,4.37,0,0,1-4.37-4.36"/><path class="cls-1" d="M1844,61a4.37,4.37,0,1,1,4.37,4.36A4.37,4.37,0,0,1,1844,61"/><path class="cls-1" d="M1814.37,61a4.37,4.37,0,1,1,4.37,4.36,4.37,4.37,0,0,1-4.37-4.36"/><path class="cls-1" d="M1784.71,61a4.37,4.37,0,1,1,4.37,4.36,4.37,4.37,0,0,1-4.37-4.36"/><path class="cls-1" d="M1755.05,61a4.37,4.37,0,1,1,4.37,4.36,4.37,4.37,0,0,1-4.37-4.36"/><path class="cls-1" d="M1725.39,61a4.37,4.37,0,1,1,4.37,4.36,4.37,4.37,0,0,1-4.37-4.36"/><path class="cls-1" d="M1695.73,61a4.37,4.37,0,1,1,4.37,4.36,4.37,4.37,0,0,1-4.37-4.36"/><path class="cls-1" d="M1666.08,61a4.37,4.37,0,1,1,4.36,4.36,4.37,4.37,0,0,1-4.36-4.36"/><path class="cls-1" d="M1636.42,61a4.37,4.37,0,1,1,4.36,4.36,4.37,4.37,0,0,1-4.36-4.36"/><path class="cls-1" d="M1606.76,61a4.37,4.37,0,1,1,4.36,4.36,4.37,4.37,0,0,1-4.36-4.36"/><path class="cls-1" d="M1577.1,61a4.37,4.37,0,1,1,4.36,4.36A4.37,4.37,0,0,1,1577.1,61"/><path class="cls-1" d="M1547.44,61a4.37,4.37,0,1,1,4.36,4.36,4.37,4.37,0,0,1-4.36-4.36"/><path class="cls-1" d="M1873.69,32.68a4.37,4.37,0,1,1,4.37,4.37,4.37,4.37,0,0,1-4.37-4.37"/><path class="cls-1" d="M1844,32.68a4.37,4.37,0,1,1,4.37,4.37,4.37,4.37,0,0,1-4.37-4.37"/><path class="cls-1" d="M1814.37,32.68a4.37,4.37,0,1,1,4.37,4.37,4.37,4.37,0,0,1-4.37-4.37"/><path class="cls-1" d="M1784.71,32.68a4.37,4.37,0,1,1,4.37,4.37,4.37,4.37,0,0,1-4.37-4.37"/><path class="cls-1" d="M1755.05,32.68a4.37,4.37,0,1,1,4.37,4.37,4.37,4.37,0,0,1-4.37-4.37"/><path class="cls-1" d="M1725.39,32.68a4.37,4.37,0,1,1,4.37,4.37,4.37,4.37,0,0,1-4.37-4.37"/><path class="cls-1" d="M1695.73,32.68a4.37,4.37,0,1,1,4.37,4.37,4.37,4.37,0,0,1-4.37-4.37"/><path class="cls-1" d="M1666.08,32.68a4.37,4.37,0,1,1,4.36,4.37,4.36,4.36,0,0,1-4.36-4.37"/><path class="cls-1" d="M1636.42,32.68a4.37,4.37,0,1,1,4.36,4.37,4.36,4.36,0,0,1-4.36-4.37"/><path class="cls-1" d="M1606.76,32.68a4.37,4.37,0,1,1,4.36,4.37,4.36,4.36,0,0,1-4.36-4.37"/><path class="cls-1" d="M1577.1,32.68a4.37,4.37,0,1,1,4.36,4.37,4.36,4.36,0,0,1-4.36-4.37"/><path class="cls-1" d="M1547.44,32.68a4.37,4.37,0,1,1,4.36,4.37,4.36,4.36,0,0,1-4.36-4.37"/><path class="cls-1" d="M1873.69,4.36a4.37,4.37,0,1,1,4.37,4.37,4.37,4.37,0,0,1-4.37-4.37"/><path class="cls-1" d="M1844,4.36a4.37,4.37,0,1,1,4.37,4.37A4.37,4.37,0,0,1,1844,4.36"/><path class="cls-1" d="M1814.37,4.36a4.37,4.37,0,1,1,4.37,4.37,4.37,4.37,0,0,1-4.37-4.37"/><path class="cls-1" d="M1784.71,4.36a4.37,4.37,0,1,1,4.37,4.37,4.37,4.37,0,0,1-4.37-4.37"/><path class="cls-1" d="M1755.05,4.36a4.37,4.37,0,1,1,4.37,4.37,4.37,4.37,0,0,1-4.37-4.37"/><path class="cls-1" d="M1725.39,4.36a4.37,4.37,0,1,1,4.37,4.37,4.37,4.37,0,0,1-4.37-4.37"/><path class="cls-1" d="M1695.73,4.36a4.37,4.37,0,1,1,4.37,4.37,4.37,4.37,0,0,1-4.37-4.37"/><path class="cls-1" d="M1666.08,4.36a4.37,4.37,0,1,1,4.36,4.37,4.36,4.36,0,0,1-4.36-4.37"/><path class="cls-1" d="M1636.42,4.36a4.37,4.37,0,1,1,4.36,4.37,4.36,4.36,0,0,1-4.36-4.37"/><path class="cls-1" d="M1606.76,4.36a4.37,4.37,0,1,1,4.36,4.37,4.36,4.36,0,0,1-4.36-4.37"/><path class="cls-1" d="M1577.1,4.36a4.37,4.37,0,1,1,4.36,4.37,4.36,4.36,0,0,1-4.36-4.37"/><path class="cls-1" d="M1547.44,4.36a4.37,4.37,0,1,1,4.36,4.37,4.36,4.36,0,0,1-4.36-4.37"/><path class="cls-1" d="M919.75,89.31a4.37,4.37,0,1,1,4.36,4.37,4.36,4.36,0,0,1-4.36-4.37"/><path class="cls-1" d="M890.09,89.31a4.37,4.37,0,1,1,4.36,4.37,4.36,4.36,0,0,1-4.36-4.37"/><path class="cls-1" d="M860.43,89.31a4.37,4.37,0,1,1,4.36,4.37,4.36,4.36,0,0,1-4.36-4.37"/><path class="cls-1" d="M830.77,89.31a4.37,4.37,0,1,1,4.36,4.37,4.36,4.36,0,0,1-4.36-4.37"/><path class="cls-1" d="M801.11,89.31a4.37,4.37,0,1,1,4.36,4.37,4.36,4.36,0,0,1-4.36-4.37"/><path class="cls-1" d="M771.45,89.31a4.37,4.37,0,1,1,4.37,4.37,4.36,4.36,0,0,1-4.37-4.37"/><path class="cls-1" d="M741.79,89.31a4.37,4.37,0,1,1,4.37,4.37,4.36,4.36,0,0,1-4.37-4.37"/><path class="cls-1" d="M712.13,89.31a4.37,4.37,0,1,1,4.37,4.37,4.36,4.36,0,0,1-4.37-4.37"/><path class="cls-1" d="M682.47,89.31a4.37,4.37,0,1,1,4.37,4.37,4.37,4.37,0,0,1-4.37-4.37"/><path class="cls-1" d="M652.81,89.31a4.37,4.37,0,1,1,4.37,4.37,4.37,4.37,0,0,1-4.37-4.37"/><path class="cls-1" d="M623.15,89.31a4.37,4.37,0,1,1,4.37,4.37,4.37,4.37,0,0,1-4.37-4.37"/><path class="cls-1" d="M593.49,89.31a4.37,4.37,0,1,1,4.37,4.37,4.37,4.37,0,0,1-4.37-4.37"/><path class="cls-1" d="M563.83,89.31a4.37,4.37,0,1,1,4.37,4.37,4.37,4.37,0,0,1-4.37-4.37"/><path class="cls-1" d="M534.17,89.31a4.37,4.37,0,1,1,4.37,4.37,4.37,4.37,0,0,1-4.37-4.37"/><path class="cls-1" d="M504.51,89.31a4.37,4.37,0,1,1,4.37,4.37,4.37,4.37,0,0,1-4.37-4.37"/><path class="cls-1" d="M474.85,89.31a4.37,4.37,0,1,1,4.37,4.37,4.37,4.37,0,0,1-4.37-4.37"/><path class="cls-1" d="M445.19,89.31a4.37,4.37,0,1,1,4.37,4.37,4.37,4.37,0,0,1-4.37-4.37"/><path class="cls-1" d="M415.53,89.31a4.37,4.37,0,1,1,4.37,4.37,4.37,4.37,0,0,1-4.37-4.37"/><path class="cls-1" d="M385.87,89.31a4.37,4.37,0,1,1,4.37,4.37,4.37,4.37,0,0,1-4.37-4.37"/><path class="cls-1" d="M356.21,89.31a4.37,4.37,0,1,1,4.37,4.37,4.37,4.37,0,0,1-4.37-4.37"/><path class="cls-1" d="M919.75,61a4.37,4.37,0,1,1,4.36,4.36A4.37,4.37,0,0,1,919.75,61"/><path class="cls-1" d="M890.09,61a4.37,4.37,0,1,1,4.36,4.36A4.37,4.37,0,0,1,890.09,61"/><path class="cls-1" d="M860.43,61a4.37,4.37,0,1,1,4.36,4.36A4.37,4.37,0,0,1,860.43,61"/><path class="cls-1" d="M830.77,61a4.37,4.37,0,1,1,4.36,4.36A4.37,4.37,0,0,1,830.77,61"/><path class="cls-1" d="M801.11,61a4.37,4.37,0,1,1,4.36,4.36A4.37,4.37,0,0,1,801.11,61"/><path class="cls-1" d="M771.45,61a4.37,4.37,0,1,1,4.37,4.36A4.37,4.37,0,0,1,771.45,61"/><path class="cls-1" d="M741.79,61a4.37,4.37,0,1,1,4.37,4.36A4.37,4.37,0,0,1,741.79,61"/><path class="cls-1" d="M712.13,61a4.37,4.37,0,1,1,4.37,4.36A4.37,4.37,0,0,1,712.13,61"/><path class="cls-1" d="M682.47,61a4.37,4.37,0,1,1,4.37,4.36A4.37,4.37,0,0,1,682.47,61"/><path class="cls-1" d="M652.81,61a4.37,4.37,0,1,1,4.37,4.36A4.37,4.37,0,0,1,652.81,61"/><path class="cls-1" d="M623.15,61a4.37,4.37,0,1,1,4.37,4.36A4.37,4.37,0,0,1,623.15,61"/><path class="cls-1" d="M593.49,61a4.37,4.37,0,1,1,4.37,4.36A4.37,4.37,0,0,1,593.49,61"/><path class="cls-1" d="M563.83,61a4.37,4.37,0,1,1,4.37,4.36A4.37,4.37,0,0,1,563.83,61"/><path class="cls-1" d="M534.17,61a4.37,4.37,0,1,1,4.37,4.36A4.37,4.37,0,0,1,534.17,61"/><path class="cls-1" d="M504.51,61a4.37,4.37,0,1,1,4.37,4.36A4.37,4.37,0,0,1,504.51,61"/><path class="cls-1" d="M474.85,61a4.37,4.37,0,1,1,4.37,4.36A4.37,4.37,0,0,1,474.85,61"/><path class="cls-1" d="M445.19,61a4.37,4.37,0,1,1,4.37,4.36A4.37,4.37,0,0,1,445.19,61"/><path class="cls-1" d="M415.53,61a4.37,4.37,0,1,1,4.37,4.36A4.37,4.37,0,0,1,415.53,61"/><path class="cls-1" d="M385.87,61a4.37,4.37,0,1,1,4.37,4.36A4.37,4.37,0,0,1,385.87,61"/><path class="cls-1" d="M356.21,61a4.37,4.37,0,1,1,4.37,4.36A4.37,4.37,0,0,1,356.21,61"/><path class="cls-1" d="M919.75,32.68a4.37,4.37,0,1,1,4.36,4.37,4.36,4.36,0,0,1-4.36-4.37"/><path class="cls-1" d="M890.09,32.68a4.37,4.37,0,1,1,4.36,4.37,4.36,4.36,0,0,1-4.36-4.37"/><path class="cls-1" d="M860.43,32.68a4.37,4.37,0,1,1,4.36,4.37,4.36,4.36,0,0,1-4.36-4.37"/><path class="cls-1" d="M830.77,32.68a4.37,4.37,0,1,1,4.36,4.37,4.36,4.36,0,0,1-4.36-4.37"/><path class="cls-1" d="M801.11,32.68a4.37,4.37,0,1,1,4.36,4.37,4.36,4.36,0,0,1-4.36-4.37"/><path class="cls-1" d="M771.45,32.68a4.37,4.37,0,1,1,4.37,4.37,4.36,4.36,0,0,1-4.37-4.37"/><path class="cls-1" d="M741.79,32.68a4.37,4.37,0,1,1,4.37,4.37,4.36,4.36,0,0,1-4.37-4.37"/><path class="cls-1" d="M712.13,32.68a4.37,4.37,0,1,1,4.37,4.37,4.36,4.36,0,0,1-4.37-4.37"/><path class="cls-1" d="M682.47,32.68a4.37,4.37,0,1,1,4.37,4.37,4.37,4.37,0,0,1-4.37-4.37"/><path class="cls-1" d="M652.81,32.68a4.37,4.37,0,1,1,4.37,4.37,4.37,4.37,0,0,1-4.37-4.37"/><path class="cls-1" d="M623.15,32.68a4.37,4.37,0,1,1,4.37,4.37,4.37,4.37,0,0,1-4.37-4.37"/><path class="cls-1" d="M593.49,32.68a4.37,4.37,0,1,1,4.37,4.37,4.37,4.37,0,0,1-4.37-4.37"/><path class="cls-1" d="M563.83,32.68a4.37,4.37,0,1,1,4.37,4.37,4.37,4.37,0,0,1-4.37-4.37"/><path class="cls-1" d="M534.17,32.68a4.37,4.37,0,1,1,4.37,4.37,4.37,4.37,0,0,1-4.37-4.37"/><path class="cls-1" d="M504.51,32.68a4.37,4.37,0,1,1,4.37,4.37,4.37,4.37,0,0,1-4.37-4.37"/><path class="cls-1" d="M474.85,32.68a4.37,4.37,0,1,1,4.37,4.37,4.37,4.37,0,0,1-4.37-4.37"/><path class="cls-1" d="M445.19,32.68a4.37,4.37,0,1,1,4.37,4.37,4.37,4.37,0,0,1-4.37-4.37"/><path class="cls-1" d="M415.53,32.68a4.37,4.37,0,1,1,4.37,4.37,4.37,4.37,0,0,1-4.37-4.37"/><path class="cls-1" d="M385.87,32.68a4.37,4.37,0,1,1,4.37,4.37,4.37,4.37,0,0,1-4.37-4.37"/><path class="cls-1" d="M356.21,32.68a4.37,4.37,0,1,1,4.37,4.37,4.37,4.37,0,0,1-4.37-4.37"/><path class="cls-1" d="M919.75,4.36a4.37,4.37,0,1,1,4.36,4.37,4.36,4.36,0,0,1-4.36-4.37"/><path class="cls-1" d="M890.09,4.36a4.37,4.37,0,1,1,4.36,4.37,4.36,4.36,0,0,1-4.36-4.37"/><path class="cls-1" d="M860.43,4.36a4.37,4.37,0,1,1,4.36,4.37,4.36,4.36,0,0,1-4.36-4.37"/><path class="cls-1" d="M830.77,4.36a4.37,4.37,0,1,1,4.36,4.37,4.36,4.36,0,0,1-4.36-4.37"/><path class="cls-1" d="M801.11,4.36a4.37,4.37,0,1,1,4.36,4.37,4.36,4.36,0,0,1-4.36-4.37"/><path class="cls-1" d="M771.45,4.36a4.37,4.37,0,1,1,4.37,4.37,4.36,4.36,0,0,1-4.37-4.37"/><path class="cls-1" d="M741.79,4.36a4.37,4.37,0,1,1,4.37,4.37,4.36,4.36,0,0,1-4.37-4.37"/><path class="cls-1" d="M712.13,4.36a4.37,4.37,0,1,1,4.37,4.37,4.36,4.36,0,0,1-4.37-4.37"/><path class="cls-1" d="M682.47,4.36a4.37,4.37,0,1,1,4.37,4.37,4.37,4.37,0,0,1-4.37-4.37"/><path class="cls-1" d="M652.81,4.36a4.37,4.37,0,1,1,4.37,4.37,4.37,4.37,0,0,1-4.37-4.37"/><path class="cls-1" d="M623.15,4.36a4.37,4.37,0,1,1,4.37,4.37,4.37,4.37,0,0,1-4.37-4.37"/><path class="cls-1" d="M593.49,4.36a4.37,4.37,0,1,1,4.37,4.37,4.37,4.37,0,0,1-4.37-4.37"/><path class="cls-1" d="M563.83,4.36a4.37,4.37,0,1,1,4.37,4.37,4.37,4.37,0,0,1-4.37-4.37"/><path class="cls-1" d="M534.17,4.36a4.37,4.37,0,1,1,4.37,4.37,4.37,4.37,0,0,1-4.37-4.37"/><path class="cls-1" d="M504.51,4.36a4.37,4.37,0,1,1,4.37,4.37,4.37,4.37,0,0,1-4.37-4.37"/><path class="cls-1" d="M474.85,4.36a4.37,4.37,0,1,1,4.37,4.37,4.37,4.37,0,0,1-4.37-4.37"/><path class="cls-1" d="M445.19,4.36a4.37,4.37,0,1,1,4.37,4.37,4.37,4.37,0,0,1-4.37-4.37"/><path class="cls-1" d="M415.53,4.36a4.37,4.37,0,1,1,4.37,4.37,4.37,4.37,0,0,1-4.37-4.37"/><path class="cls-1" d="M385.87,4.36a4.37,4.37,0,1,1,4.37,4.37,4.37,4.37,0,0,1-4.37-4.37"/><path class="cls-1" d="M356.21,4.36a4.37,4.37,0,1,1,4.37,4.37,4.37,4.37,0,0,1-4.37-4.37"/></g></g></svg>