<svg xmlns="http://www.w3.org/2000/svg" viewBox="0 0 78.24 77.85"><defs><style>.cls-1{fill:#fff;}</style></defs><title>homepage_icon_3</title><g id="Layer_2" data-name="Layer 2"><g id="Layer_1-2" data-name="Layer 1"><path class="cls-1" d="M61.26,29.26,33.6,56.92,17,40.33l5.51-5.51L33.6,45.89,55.75,23.75ZM7.82,38.92a31.08,31.08,0,0,1,10.25-23l9.31,9.31V1.76H3.91l8.61,8.61A39,39,0,0,0,35.21,77.85V70a31.32,31.32,0,0,1-27.39-31m70.42,0A39.11,39.11,0,0,0,43,0V7.9a31.16,31.16,0,0,1,17.14,54l-9.31-9.31V76.09H74.33l-8.61-8.61A38.85,38.85,0,0,0,78.24,38.92"/></g></g></svg>